<svg width="66" height="66" viewBox="0 0 66 66" fill="none" xmlns="http://www.w3.org/2000/svg">
<rect width="66" height="66" rx="3" fill="url(#paint0_linear_1_2)"/>
<path d="M24.75 49.5V13.75L57.75 8.25V44" stroke="white" stroke-width="5" stroke-linecap="round" stroke-linejoin="round"/>
<path d="M16.5 57.75C21.0563 57.75 24.75 54.0563 24.75 49.5C24.75 44.9437 21.0563 41.25 16.5 41.25C11.9437 41.25 8.25 44.9437 8.25 49.5C8.25 54.0563 11.9437 57.75 16.5 57.75Z" stroke="white" stroke-width="5" stroke-linecap="round" stroke-linejoin="round"/>
<path d="M49.5 52.25C54.0563 52.25 57.75 48.5563 57.75 44C57.75 39.4437 54.0563 35.75 49.5 35.75C44.9437 35.75 41.25 39.4437 41.25 44C41.25 48.5563 44.9437 52.25 49.5 52.25Z" stroke="white" stroke-width="5" stroke-linecap="round" stroke-linejoin="round"/>
<defs>
<linearGradient id="paint0_linear_1_2" x1="0" y1="0" x2="66" y2="67.375" gradientUnits="userSpaceOnUse">
<stop offset="0.197115" stop-color="#AD46FF"/>
<stop offset="1" stop-color="#2B7FFF"/>
</linearGradient>
</defs>
</svg>
